<?xml version="1.0" encoding="UTF-8" standalone="no"?>
<!-- Created with Inkscape (http://www.inkscape.org/) -->

<svg
   width="174mm"
   height="131mm"
   viewBox="0 0 174 131"
   version="1.1"
   id="svg1716"
   inkscape:version="1.2.1 (9c6d41e410, 2022-07-14)"
   sodipodi:docname="logo betel.svg"
   xmlns:inkscape="http://www.inkscape.org/namespaces/inkscape"
   xmlns:sodipodi="http://sodipodi.sourceforge.net/DTD/sodipodi-0.dtd"
   xmlns="http://www.w3.org/2000/svg"
   xmlns:svg="http://www.w3.org/2000/svg">
  <sodipodi:namedview
     id="namedview1718"
     pagecolor="#505050"
     bordercolor="#eeeeee"
     borderopacity="1"
     inkscape:showpageshadow="0"
     inkscape:pageopacity="0"
     inkscape:pagecheckerboard="0"
     inkscape:deskcolor="#505050"
     inkscape:document-units="mm"
     showgrid="false"
     inkscape:zoom="0.84096521"
     inkscape:cx="501.80435"
     inkscape:cy="451.26718"
     inkscape:window-width="1920"
     inkscape:window-height="1027"
     inkscape:window-x="-8"
     inkscape:window-y="-8"
     inkscape:window-maximized="1"
     inkscape:current-layer="layer1" />
  <defs
     id="defs1713" />
  <g
     inkscape:label="Capa 1"
     inkscape:groupmode="layer"
     id="layer1">
    <path
       id="XMLID_1172_"
       class="st1"
       d="M 87.490348,2.2684172 5.1258719,28.912276 l 2.407603,7.46104 9.4717631,-3.04271 v 76.702814 c 5.90021,0 10.21313,-0.18542 13.57334,-0.47646 V 54.576856 H 144.42899 v 54.980104 c 3.36021,0.29104 7.6726,0.47646 13.5728,0.47646 V 33.330606 l 9.44595,3.04271 2.4076,-7.46104 z m -14.52573,7.7788548 h 28.971862 c 0.21167,0 0.39688,0.185209 0.39688,0.396875 v 10.133754 c 0,0.211666 -0.18521,0.396875 -0.39688,0.396875 h -3.359997 c -0.1852,0 -0.34395,-0.13261 -0.39687,-0.317818 -0.3175,-1.296458 -0.55584,-2.248535 -0.74105,-2.883535 -0.1852,-0.582083 -0.3702,-1.085109 -0.58187,-1.508442 -0.21166,-0.396875 -0.42333,-0.740516 -0.66146,-1.005099 -0.21166,-0.264584 -0.44968,-0.450004 -0.68781,-0.608754 -0.23812,-0.15875 -0.55562,-0.264795 -0.92604,-0.34417 -0.39687,-0.07937 -0.92615,-0.132291 -1.56115,-0.132291 h -1.37562 v 28.416359 c 0,1.00541 0.0262,1.77302 0.0791,2.30219 0.0529,0.50271 0.1324,0.8727 0.23823,1.16374 0.10583,0.29104 0.23813,0.50271 0.39688,0.66146 0.15875,0.15875 0.37041,0.31782 0.66145,0.45011 0.29105,0.15875 0.71459,0.26427 1.27022,0.34364 0.1852,0.0265 0.34364,0.21167 0.34364,0.39688 v 1.90531 c 0,0.21167 -0.18521,0.39688 -0.39688,0.39688 H 80.637568 c -0.21166,0 -0.39687,-0.18521 -0.39687,-0.39688 v -1.90531 c 0,-0.18521 0.13261,-0.37042 0.31782,-0.39688 0.635,-0.13229 1.16395,-0.29062 1.50791,-0.50228 0.34396,-0.18521 0.58229,-0.42344 0.74104,-0.7674 0.18521,-0.37042 0.29083,-0.82042 0.31729,-1.40251 0.0529,-0.60854 0.0796,-1.37562 0.0796,-2.30166 V 14.121962 h -1.5875 c -0.92604,0 -1.61407,0.132397 -2.09032,0.370522 -0.44979,0.238125 -0.87301,0.608224 -1.21697,1.137391 -0.37042,0.529167 -0.68781,1.296564 -0.9524,2.222606 -0.26458,0.9525 -0.50313,1.878753 -0.68834,2.72542 -0.0265,0.185208 -0.21166,0.317288 -0.39687,0.317288 h -3.36 c -0.21167,0 -0.39687,-0.185208 -0.39687,-0.396875 V 10.444147 h 0.0527 c 0,-0.211666 0.18521,-0.396875 0.39688,-0.396875 z m -21.6426,7.59386 h 19.15594 c 0.23812,0 0.42322,0.185102 0.42322,0.423227 v 7.408337 c 0,0.23812 -0.1851,0.42322 -0.42322,0.42322 h -2.64584 c -0.1852,0 -0.34395,-0.13218 -0.39687,-0.29093 -0.42333,-1.42875 -0.7674,-2.40771 -1.03198,-2.91042 -0.26459,-0.47625 -0.58198,-0.846983 -0.9524,-1.111566 -0.23812,-0.15875 -0.74083,-0.369994 -1.85208,-0.369994 h -3.81011 v 10.37146 h 2.14302 c 0.47625,0 0.87292,-0.0795 1.11104,-0.23823 0.23813,-0.15875 0.47636,-0.42334 0.63511,-0.79375 0.18521,-0.42334 0.39719,-1.08469 0.5824,-2.01073 0.0265,-0.18521 0.21167,-0.31729 0.39687,-0.31729 h 2.19573 c 0.23812,0 0.42323,0.1851 0.42323,0.42323 v 9.47176 c 0,0.23813 -0.18511,0.42376 -0.42323,0.42376 h -2.19573 c -0.1852,0 -0.37041,-0.13261 -0.39687,-0.31782 -0.18521,-0.87312 -0.37074,-1.53458 -0.5824,-1.98437 -0.18521,-0.39688 -0.39698,-0.68771 -0.63511,-0.84646 -0.23812,-0.15875 -0.60822,-0.23823 -1.13739,-0.23823 h -2.14302 v 11.61531 h 3.78323 c 0.42333,0 0.76729,-0.0266 1.05833,-0.10593 0.26458,-0.0529 0.47614,-0.15865 0.68781,-0.29094 0.21167,-0.15875 0.42355,-0.34417 0.60875,-0.60875 0.21167,-0.26459 0.39677,-0.58219 0.55552,-0.89969 0.15875,-0.3175 0.34396,-0.76687 0.52917,-1.29604 0.18521,-0.55562 0.39698,-1.29688 0.63511,-2.27584 0.0529,-0.18521 0.21166,-0.31729 0.39687,-0.31729 h 2.64583 c 0.10584,0 0.21156,0.0529 0.29094,0.1323 0.0794,0.0794 0.10594,0.1851 0.10594,0.29093 l -0.37052,8.5199 c 0,0.21167 -0.18521,0.39688 -0.39688,0.39688 h -18.99676 c -0.23813,0 -0.42376,-0.18563 -0.42376,-0.42376 v -1.53427 c 0,-0.1852 0.10626,-0.34395 0.29146,-0.39687 0.4498,-0.13229 0.79333,-0.29136 1.03146,-0.45011 0.21166,-0.13229 0.37062,-0.31739 0.47646,-0.55552 0.10583,-0.26458 0.18531,-0.63489 0.23823,-1.08468 0.0265,-0.47625 0.0527,-1.0849 0.0527,-1.82574 v -20.08198 c 0,-0.71437 -0.0262,-1.32249 -0.0527,-1.8252 -0.0265,-0.44979 -0.10605,-0.82063 -0.21188,-1.085213 -0.10583,-0.238125 -0.26427,-0.423122 -0.47593,-0.581872 -0.23813,-0.15875 -0.58219,-0.317711 -1.03198,-0.476461 -0.15875,-0.05292 -0.29094,-0.211667 -0.29094,-0.396875 v -1.534266 c 0,-0.238125 0.1851,-0.423227 0.42323,-0.423227 z m 53.657172,0 h 19.15594 c 0.23812,0 0.42323,0.185102 0.42323,0.423227 v 7.408337 c 0,0.23812 -0.18511,0.42322 -0.42323,0.42322 h -2.64583 c -0.18521,0 -0.34396,-0.13218 -0.39688,-0.29093 -0.42333,-1.42875 -0.7674,-2.40771 -1.03198,-2.91042 -0.26458,-0.47625 -0.58198,-0.846983 -0.95239,-1.111566 -0.23813,-0.15875 -0.74084,-0.369994 -1.85209,-0.369994 h -3.8101 v 10.37146 h 2.14354 c 0.47625,0 0.87292,-0.0795 1.11104,-0.23823 0.23813,-0.15875 0.47636,-0.42334 0.63511,-0.79375 0.18521,-0.42334 0.39666,-1.08469 0.58187,-2.01073 0.0265,-0.18521 0.21167,-0.31729 0.39688,-0.31729 h 2.19625 c 0.23812,0 0.42323,0.1851 0.42323,0.42323 v 9.47176 c 0,0.23813 -0.18511,0.42376 -0.42323,0.42376 h -2.19625 c -0.18521,0 -0.37042,-0.13261 -0.39688,-0.31782 -0.18521,-0.87312 -0.3702,-1.53458 -0.58187,-1.98437 -0.18521,-0.39688 -0.39698,-0.68771 -0.63511,-0.84646 -0.23812,-0.15875 -0.60875,-0.23823 -1.13792,-0.23823 h -2.14302 v 11.61531 h 3.78376 c 0.42333,0 0.76729,-0.0266 1.05833,-0.10593 0.26458,-0.0529 0.47614,-0.15865 0.68781,-0.29094 0.21167,-0.15875 0.42355,-0.34417 0.60875,-0.60875 0.21167,-0.26459 0.39677,-0.58219 0.55552,-0.89969 0.15875,-0.3175 0.34396,-0.76687 0.52917,-1.29604 0.18521,-0.55562 0.39698,-1.29688 0.63511,-2.27584 0.0529,-0.18521 0.21166,-0.31729 0.39687,-0.31729 h 2.64583 c 0.10584,0 0.21157,0.0529 0.29094,0.1323 0.0794,0.0794 0.10594,0.1851 0.10594,0.29093 l -0.37052,8.5199 c 0,0.21167 -0.18521,0.39688 -0.39688,0.39688 h -18.99729 c -0.23813,0 -0.42323,-0.18563 -0.42323,-0.42376 v -1.53427 c 0,-0.1852 0.10573,-0.34395 0.29094,-0.39687 0.44979,-0.13229 0.79385,-0.29136 1.03198,-0.45011 0.21166,-0.13229 0.37062,-0.31739 0.47646,-0.55552 0.10583,-0.26458 0.18478,-0.63489 0.2377,-1.08468 0.0265,-0.47625 0.0532,-1.0849 0.0532,-1.82574 v -20.08198 c 0,-0.71437 -0.0268,-1.32249 -0.0532,-1.8252 -0.0265,-0.44979 -0.10552,-0.82063 -0.21135,-1.085213 -0.10583,-0.238125 -0.26479,-0.423122 -0.47646,-0.581872 -0.23813,-0.15875 -0.58219,-0.317711 -1.03198,-0.476461 -0.15875,-0.05292 -0.29094,-0.211667 -0.29094,-0.396875 v -1.534266 c 0,-0.238125 0.1851,-0.423227 0.42323,-0.423227 z m 24.10396,6.984574 h 8.17521 c 0.21166,0 0.37052,0.15886 0.37052,0.37053 v 1.19062 c 0,0.15875 -0.10584,0.31771 -0.26459,0.34417 -0.34395,0.10583 -0.60854,0.23781 -0.79374,0.34364 -0.15875,0.10583 -0.29115,0.23855 -0.37053,0.42376 -0.10583,0.21166 -0.15854,0.47614 -0.18499,0.8201 -0.0265,0.37042 -0.0527,0.84635 -0.0527,1.40197 v 17.78032 h 2.64583 c 0.52917,0 0.95229,-0.0794 1.24333,-0.26458 0.3175,-0.18521 0.58198,-0.47646 0.82011,-0.87334 0.23812,-0.42333 0.47635,-1.00552 0.6351,-1.69344 0.18521,-0.71437 0.34375,-1.40208 0.44958,-2.03708 0.0265,-0.18521 0.18532,-0.31729 0.37052,-0.31729 h 2.14302 c 0.10584,0 0.21167,0.0525 0.26459,0.10541 0.0794,0.0794 0.10594,0.18521 0.10594,0.26459 l -0.34364,7.38198 c 0,0.21166 -0.18532,0.34417 -0.37053,0.34417 h -14.84302 c -0.21166,0 -0.37052,-0.15886 -0.37052,-0.37052 v -1.11104 h -0.0532 c 0,-0.15875 0.10583,-0.31771 0.26458,-0.34417 0.34396,-0.10584 0.63542,-0.23823 0.82063,-0.37053 0.15875,-0.10583 0.29062,-0.23801 0.37,-0.42322 0.0794,-0.21167 0.15906,-0.47615 0.18552,-0.82011 0.0265,-0.37041 0.0527,-0.84677 0.0527,-1.42885 v -15.71636 c 0,-0.55562 1e-4,-1.03198 -0.0265,-1.42885 -0.0265,-0.34396 -0.0793,-0.60844 -0.15865,-0.8201 -0.0794,-0.18521 -0.21177,-0.31729 -0.37052,-0.44958 -0.18521,-0.1323 -0.47614,-0.26469 -0.8201,-0.37053 -0.15875,-0.0529 -0.26458,-0.18531 -0.26458,-0.37052 v -1.19062 c 0,-0.21167 0.15885,-0.37053 0.37052,-0.37053 z m -98.345932,0.0269 h 10.21281 c 1.19063,0 2.16959,0.0791 2.91042,0.21135 1.03188,0.18521 1.90542,0.52938 2.67272,1.00563 0.68791,0.42333 1.24333,1.05823 1.6402,1.87844 0.39688,0.79375 0.58187,1.74614 0.58187,2.80447 0,2.69875 -1.3227,4.78886 -3.88916,6.24406 1.24354,0.55563 2.2225,1.29657 2.91042,2.22261 0.8202,1.08479 1.21697,2.38157 1.21697,3.88969 0,1.24354 -0.1851,2.38125 -0.55552,3.30729 -0.37041,0.9525 -0.9526,1.74625 -1.69344,2.38125 -0.74083,0.60855 -1.64041,1.05823 -2.64583,1.34927 -0.97896,0.26459 -2.24875,0.42323 -3.75687,0.42323 h -9.63094 c -0.21167,0 -0.37052,-0.15886 -0.37052,-0.37052 v -1.26968 c 0,-0.15875 0.10583,-0.31772 0.26458,-0.34417 0.34396,-0.10584 0.6349,-0.23834 0.8201,-0.34417 0.15875,-0.10584 0.2648,-0.23802 0.34417,-0.42323 0.0794,-0.21167 0.15854,-0.47615 0.185,-0.8201 0.0265,-0.37042 0.0532,-0.84678 0.0532,-1.42886 v -15.71635 c 0,-0.55563 1.1e-4,-1.03146 -0.0264,-1.42833 -0.0265,-0.34396 -0.0798,-0.60897 -0.15918,-0.82063 -0.0794,-0.18521 -0.21124,-0.31729 -0.36999,-0.44958 -0.18521,-0.13229 -0.47667,-0.26469 -0.82063,-0.37052 -0.15875,-0.0529 -0.26459,-0.18532 -0.26459,-0.37053 v -1.19062 c 0,-0.21167 0.15886,-0.37 0.37053,-0.37 z m 8.57261,2.88354 c -0.58208,0 -1.19052,0.0268 -1.74615,0.0532 v 7.96385 h 1.69344 c 0.97896,0.0265 1.74615,-0.13208 2.27531,-0.44958 0.52917,-0.3175 0.92605,-0.76772 1.19063,-1.3498 0.29104,-0.60854 0.42323,-1.4551 0.42323,-2.53989 0,-0.92604 -0.15854,-1.69344 -0.44958,-2.22261 -0.29104,-0.52917 -0.68824,-0.87291 -1.24386,-1.11104 -0.55563,-0.23812 -1.29635,-0.34417 -2.14302,-0.34417 z m -1.71979,10.95385 v 8.94313 c 0.52916,0.0265 1.11114,0.0265 1.74614,0.0265 0.92604,-0.0265 1.69323,-0.15864 2.27531,-0.42323 0.55563,-0.23812 0.97907,-0.68791 1.29657,-1.32291 0.3175,-0.66146 0.50281,-1.58761 0.50281,-2.75178 0,-0.84666 -0.0794,-1.56093 -0.26458,-2.14301 -0.15875,-0.55563 -0.42355,-1.03177 -0.74105,-1.34927 -0.3175,-0.34396 -0.74083,-0.5823 -1.19062,-0.74105 -0.47625,-0.15875 -1.08437,-0.23823 -1.8252,-0.23823 z m -16.27188,16.61605 h 0.0265 1.4025 l 1.08469,1.77249 1.08469,-1.77249 h 1.34926 v 2.85718 h -0.97885 v -1.98437 l -1.24333,1.98437 h -0.52916 l -1.24386,-1.98437 v 1.98437 h -0.9524 z m 127.396872,0 h 0.0265 1.40251 l 1.08468,1.77249 1.08469,-1.77249 h 1.34927 v 2.85718 h -0.97885 v -1.98437 l -1.24333,1.98437 h -0.52917 l -1.24386,-1.98437 v 1.98437 h -0.95239 z m -116.310722,1.87843 v 5.47667 l 11.77396,3.36052 v 41.407294 c 2.83104,-0.55562 6.11187,-1.00541 11.37708,-1.19062 V 65.821666 h 63.843632 v 40.216674 c 5.26521,0.18521 8.54604,0.635 11.37708,1.19062 V 65.821666 l 11.77396,-3.36052 v -5.47667 z m 118.295092,3.38688 h 0.97875 v 2.85718 h -0.97875 z m -128.534782,0.66146 h 3.30729 v 0.66146 h -2.32802 v 0.42323 h 2.24896 v 0.66145 h -2.27531 v 0.47594 h 2.38125 v 0.66145 h -3.33417 z m 126.999992,4.60333 h 1.08521 l 2.01073,1.79937 v -1.79937 h 0.97874 v 2.85771 h -0.97874 l -2.11667,-1.90479 v 1.90479 h -0.97927 z m -101.784992,0.52916 h 1.4025 l 1.08469,1.74668 1.08469,-1.74668 h 1.34926 v 2.80501 h -0.95239 v -1.93167 l -1.24333,1.93167 h -0.52917 l -1.24386,-1.93167 v 1.93167 h -0.95239 z m -26.06146,0.82063 h 0.0265 1.4025 l 1.08469,1.7725 1.08469,-1.7725 h 1.34926 v 2.85719 h -0.97885 v -1.98438 l -1.24333,1.98438 h -0.52916 l -1.24386,-1.98438 v 1.98438 h -0.9524 z m 101.309062,0.47594 h 0.0265 1.40251 l 1.08468,1.77302 1.08469,-1.77302 h 1.34927 v 2.85771 h -0.97875 v -1.98438 l -1.24386,1.98438 h -0.52916 l -1.24333,-1.98438 v 1.98438 h -0.9524 z m -26.035107,0.45011 a 2.7516666,3.0691666 0 0 0 -2.75177,3.06906 2.7516666,3.0691666 0 0 0 2.75177,3.06906 2.7516666,3.0691666 0 0 0 2.75177,-3.06906 2.7516666,3.0691666 0 0 0 -2.75177,-3.06906 z m -20.667975,1.65158 a 2.7781819,2.4077576 82.738538 0 0 -0.34367,0.0156 2.7781819,2.4077576 82.738538 0 0 -2.03708,3.06028 2.7781819,2.4077576 82.738538 0 0 2.73937,2.45152 2.7781819,2.4077576 82.738538 0 0 2.0371,-3.06028 2.7781819,2.4077576 82.738538 0 0 -2.39572,-2.46703 z m 74.775262,1.33789 h 0.97875 v 2.85771 h -0.97875 z m -101.520402,1.08469 h 1.45521 l 1.53426,2.77812 h -1.0051 l -0.26458,-0.50228 h -2.03761 l -0.26458,0.50228 h -0.9524 z m 0.55552,0.6351 -0.55552,1.00563 h 1.40197 l -0.55552,-1.00563 z m -27.91354,0.26459 h 2.67218 c 0.42334,0 0.71459,0.0532 0.87334,0.18552 0.18521,0.13229 0.26458,0.29073 0.26458,0.47593 v 0.0532 c 0,0.0794 -0.0268,0.15832 -0.0532,0.2377 -0.0265,0.0794 -0.0794,0.13271 -0.13229,0.15917 -0.0529,0.0529 -0.10573,0.0789 -0.15865,0.10541 -0.0529,0.0265 -0.10583,0.0532 -0.13229,0.0532 0.0529,0.0265 0.10562,0.0526 0.185,0.0791 0.0529,0.0265 0.1325,0.0794 0.21188,0.1323 0.0794,0.0529 0.13208,0.1325 0.18499,0.21187 0.0529,0.0794 0.0796,0.185 0.0796,0.31729 v 0.0532 c 0,0.55562 -0.42344,0.8201 -1.29657,0.8201 h -2.69853 z m 0.95239,0.60875 v 0.47593 h 1.5348 c 0.23812,0 0.34364,-0.0789 0.34364,-0.2377 0,-0.15875 -0.10552,-0.23823 -0.34364,-0.23823 z m 101.838222,0.42323 h 0.97875 v 2.83083 h -0.97875 z m -28.099067,0.55552 c -4.65666,0 -7.69927,3.75718 -7.69927,9.89552 0,0.635 0.0529,1.27 0.1323,1.85208 0.13229,0.87313 2.77823,-6.95843 4.73614,-6.24406 0.89959,0.3175 -0.10572,3.62469 -2.4076,7.69927 -3.09562,5.55625 -4.206865,12.647084 -3.571865,14.022924 0.582075,1.24354 3.968425,-10.980004 7.222795,-10.768334 3.14854,0.21166 2.19626,11.668124 3.1223,11.773954 1.03187,0.1323 1.93124,-7.223334 1.77249,-13.441044 -0.10583,-4.15396 -1.48166,-7.85813 -0.26458,-9.12813 2.116667,-2.24895 4.048547,8.51969 4.392507,6.85282 0.18521,-0.84667 0.26458,-1.98438 0.26458,-2.91042 0,-5.45041 -3.44001,-9.60458 -7.699797,-9.60458 z m -73.712805,0.10593 v 0.55552 h 1.61386 c 0.15875,0 0.23854,-0.0262 0.29146,-0.079 0.0529,-0.0529 0.0791,-0.13261 0.0791,-0.18553 v -0.0265 c 0,-0.15875 -0.1324,-0.26458 -0.37052,-0.26458 z m 53.88354,1.13483 c -0.26567,-0.003 -0.54354,0.008 -0.83458,0.0294 -5.21229,0.39687 -5.10614,5.89989 -5.10614,5.89989 0,0 -0.31782,4.31292 0.74052,4.18063 1.05833,-0.1323 0.9526,-4.65667 2.48718,-4.36563 1.29646,0.23813 0.1324,3.86292 -0.68781,6.21771 -0.92604,2.67229 -2.14333,4.78885 -3.38687,6.37635 -1.24355,1.56104 0.95271,1.40229 3.65146,1.32292 -0.34396,4.20687 0.81989,6.112194 1.26968,6.006364 0.42333,-0.10584 1.19062,-6.006364 1.19062,-6.006364 h 3.81011 c 0,0 0.95271,5.027084 1.93167,4.894794 0.97896,-0.13229 0.63511,-4.947504 0.63511,-4.947504 0,0 0.52895,-10e-5 1.77249,-0.10594 1.24354,-0.13229 1.79917,-0.66124 0.66146,-3.62458 -1.13771,-2.96333 -3.70395,-5.31854 -4.9475,-8.22896 -0.55562,-1.29646 -0.50302,-2.59271 -0.18552,-2.69854 0.39687,-0.13229 0.87323,0.76708 1.29656,1.64021 0.74084,1.56104 2.30188,3.06959 2.91042,2.67271 0.60854,-0.37042 -0.63489,-3.20146 -1.34927,-5.02708 -0.66974,-1.71154 -1.87468,-4.21376 -5.85959,-4.23643 z m 74.280722,0.29403 h 0.29094 c 0.29104,0 0.52927,0.0262 0.7674,0.0527 0.21166,0.0264 0.39687,0.0794 0.52916,0.13229 0.1323,0.0529 0.23792,0.1325 0.31729,0.21188 0.0794,0.0794 0.13272,0.15885 0.15918,0.23823 0.0264,0.0794 0.0527,0.15875 0.0527,0.26458 v 0.0265 h -1.00563 c 0,-0.0265 -0.0265,-0.0531 -0.0265,-0.0796 0,-0.0265 -0.0262,-0.0526 -0.0791,-0.0791 -0.0265,-0.0264 -0.0794,-0.0531 -0.1323,-0.0796 -0.0529,-0.0265 -0.15875,-0.0527 -0.26458,-0.0527 -0.10583,-0.0265 -0.21177,-0.0269 -0.37052,-0.0269 h -0.15865 c -0.23812,0 -0.39698,0.0268 -0.50281,0.0532 -0.13229,0.0265 -0.21177,0.0526 -0.23823,0.0791 -0.0265,0.0265 -0.0527,0.0794 -0.0527,0.13229 0,0.0529 0.0262,0.0794 0.0527,0.1323 0.0265,0.0264 0.10604,0.0531 0.21188,0.0796 0.10583,0.0265 0.26426,0.0527 0.47593,0.0527 h 0.23823 0.29094 c 0.58208,0 1.00563,0.0796 1.27021,0.21188 0.26458,0.13229 0.39687,0.34406 0.39687,0.6351 v 0.0527 c 0,0.10583 1.1e-4,0.21156 -0.0264,0.29093 -0.0529,0.13229 -0.10616,0.21199 -0.18553,0.31782 -0.0794,0.0794 -0.185,0.15843 -0.31729,0.21135 -0.13229,0.0529 -0.3175,0.10583 -0.52917,0.13229 -0.23812,0.0265 -0.5027,0.0532 -0.79375,0.0532 h -0.29093 c -0.3175,0 -0.58251,-0.0267 -0.82063,-0.0796 -0.23813,-0.0529 -0.42334,-0.10562 -0.52917,-0.185 -0.13229,-0.0794 -0.23802,-0.15875 -0.29094,-0.26458 -0.0794,-0.10584 -0.13229,-0.18521 -0.13229,-0.26459 -0.0265,-0.0794 -0.0265,-0.15875 -0.0265,-0.26458 v -0.0532 h 1.03199 c 0.0265,0.29104 0.23791,0.45011 0.84645,0.45011 h 0.23855 c 0.18521,0 0.29104,1e-4 0.39687,-0.0265 0.1323,-0.0265 0.21156,-0.0531 0.29094,-0.0796 0.0529,-0.0265 0.10594,-0.053 0.10594,-0.10594 0.0265,-0.0265 0.0265,-0.0795 0.0265,-0.10594 0,-0.0529 -0.0262,-0.10572 -0.0527,-0.15864 -0.0265,-0.0265 -0.10594,-0.0795 -0.23823,-0.10594 -0.13229,-0.0265 -0.29104,-0.0527 -0.52917,-0.0527 h -0.31728 -0.23823 c -1.00542,-0.0264 -1.5348,-0.31728 -1.5348,-0.84645 v -0.0269 c 0,-0.0794 -1.1e-4,-0.18521 0.0265,-0.26459 0.0265,-0.0794 0.0798,-0.15832 0.15917,-0.2377 0.0794,-0.0794 0.1851,-0.13261 0.29094,-0.18552 0.13229,-0.0529 0.29115,-0.10584 0.50281,-0.13229 0.21167,-0.0265 0.44958,-0.0527 0.71417,-0.0527 z m -103.187482,1.71979 h 2.09031 c 0.29104,0 0.55562,0.0262 0.79375,0.0527 0.23812,0.0265 0.42312,0.0793 0.58187,0.15864 0.15875,0.0794 0.29104,0.1325 0.39688,0.21188 0.10583,0.0794 0.1852,0.18521 0.26458,0.26458 0.0529,0.10584 0.10583,0.21156 0.13229,0.29094 0.0265,0.10583 0.0532,0.21198 0.0532,0.31782 v 0.15864 c 0,0.13229 -0.0268,0.26469 -0.0532,0.37052 -0.0265,0.10584 -0.10551,0.2377 -0.21135,0.37 -0.10583,0.13229 -0.23812,0.23844 -0.39687,0.31781 -0.15875,0.0794 -0.37053,0.15844 -0.63511,0.21135 -0.26458,0.0529 -0.58208,0.0796 -0.92604,0.0796 h -2.09031 z m 1.00562,0.68781 v 1.45521 h 1.03146 c 0.84666,0 1.27021,-0.23791 1.27021,-0.71416 v -0.0269 c -0.0265,-0.47625 -0.45001,-0.71417 -1.27021,-0.71417 z m -26.74979,0.50282 h 2.27584 c 0.8202,0 1.21697,0.2378 1.21697,0.74051 v 0.0532 c 0,0.29104 -0.18521,0.50239 -0.52916,0.60822 0.21166,0.0265 0.31739,0.10605 0.42322,0.21188 0.10584,0.10583 0.15865,0.23802 0.15865,0.42323 v 0.76739 h -0.89969 v -0.50281 c 0,-0.18521 -0.0529,-0.29115 -0.13229,-0.37052 -0.0794,-0.0794 -0.23792,-0.10541 -0.44958,-0.10541 h -1.16428 v 1.0051 h -0.89968 z m 0.89968,0.60822 v 0.55605 h 1.34927 c 0.1323,0 0.21167,-0.0267 0.26459,-0.0796 0.0529,-0.0529 0.0796,-0.10604 0.0796,-0.21188 0,-0.0794 -0.0267,-0.15853 -0.0796,-0.18499 -0.0529,-0.0529 -0.15875,-0.0796 -0.26459,-0.0796 z m 101.890932,0.7674 h 0.29146 c 0.29105,0 0.52875,0.0268 0.76687,0.0532 0.21167,0.0265 0.39688,0.0794 0.52917,0.13229 0.13229,0.0529 0.23844,0.13198 0.31782,0.21135 0.0794,0.0794 0.13218,0.15886 0.15864,0.23823 0.0265,0.0794 0.0527,0.15875 0.0527,0.26459 v 0.0265 h -1.0051 c 0,-0.0265 -0.0265,-0.0526 -0.0265,-0.0791 0,-0.0265 -0.0267,-0.0531 -0.0796,-0.0796 -0.0529,-0.0265 -0.0794,-0.0531 -0.13229,-0.0796 -0.0529,-0.0265 -0.15875,-0.0527 -0.26458,-0.0527 -0.10584,-0.0265 -0.21178,-0.0265 -0.37053,-0.0265 h -0.15853 c -0.23813,0 -0.39698,0.0262 -0.50282,0.0527 -0.13229,0.0265 -0.21177,0.0531 -0.23823,0.0796 -0.0265,0.0265 -0.0527,0.0794 -0.0527,0.1323 0,0.0529 0.0262,0.0795 0.0527,0.10593 0.0265,0.0265 0.10605,0.0526 0.21188,0.0791 0.10583,0.0265 0.26479,0.0268 0.47646,0.0532 h 0.2377 0.29147 c 0.58208,0 1.0051,0.079 1.26968,0.21135 0.26458,0.13229 0.39688,0.34406 0.39688,0.6351 v 0.0527 c 0,0.10583 1e-4,0.21209 -0.0265,0.29146 -0.0265,0.0794 -0.0793,0.15875 -0.15865,0.26458 -0.0794,0.0794 -0.18552,0.15844 -0.31781,0.21135 -0.1323,0.0529 -0.3175,0.10584 -0.52917,0.1323 -0.23813,0.0264 -0.50271,0.0532 -0.79375,0.0532 h -0.29094 c -0.3175,0 -0.58197,-0.0267 -0.8201,-0.0796 -0.23812,-0.0529 -0.42333,-0.10562 -0.52917,-0.18499 -0.13229,-0.0794 -0.23802,-0.15886 -0.29093,-0.23823 -0.0794,-0.10584 -0.13229,-0.18521 -0.13229,-0.26459 -0.0265,-0.0794 -0.0265,-0.15875 -0.0265,-0.26458 v -0.0532 h 1.03145 c 0.0265,0.29105 0.23844,0.45011 0.84698,0.45011 h 0.23823 c 0.18521,0 0.29105,1.1e-4 0.39688,-0.0264 0.13229,-0.0265 0.21156,-0.0531 0.29094,-0.0796 0.0529,-0.0265 0.10593,-0.053 0.10593,-0.10594 0.0265,-0.0265 0.0265,-0.0795 0.0265,-0.10594 -0.0265,-0.0265 -0.0531,-0.079 -0.0796,-0.10541 -0.0265,-0.0265 -0.10594,-0.0795 -0.23823,-0.10594 -0.1323,-0.0265 -0.29105,-0.0532 -0.52917,-0.0532 h -0.31718 -0.23823 c -1.00542,-0.0265 -1.53427,-0.29083 -1.53427,-0.84646 v -0.0265 c 0,-0.0794 -1.1e-4,-0.1852 0.0265,-0.26458 0.0265,-0.0794 0.0793,-0.15886 0.15864,-0.23823 0.0794,-0.0794 0.1851,-0.13208 0.29094,-0.185 0.13229,-0.0529 0.29115,-0.10583 0.50281,-0.13229 0.21167,-0.0265 0.44958,-0.0532 0.71417,-0.0532 z m 24.52719,1.11157 h 3.67782 v 0.68781 h -1.3498 v 2.19572 h -0.97875 v -2.19572 h -1.34927 z m -101.520932,2.16937 h 0.97928 v 1.29656 c 0,0.10584 0.0262,0.1851 0.0527,0.29094 0.0265,0.0794 0.0793,0.15875 0.15865,0.26458 0.0794,0.0794 0.18552,0.15854 0.31781,0.185 0.13229,0.0529 0.3175,0.0796 0.52917,0.0796 0.18521,0 0.37052,-0.0267 0.50281,-0.0796 0.1323,-0.0529 0.23792,-0.10562 0.31729,-0.185 0.0794,-0.0794 0.13219,-0.15875 0.15865,-0.26458 0.0264,-0.0794 0.0532,-0.1851 0.0532,-0.29094 v -1.29656 h 0.97875 v 1.32291 c 0,0.10584 -0.0262,0.23834 -0.0527,0.34417 -0.0265,0.1323 -0.0797,0.23813 -0.18552,0.39688 -0.0794,0.13229 -0.18489,0.26416 -0.34364,0.36999 -0.1323,0.10584 -0.31793,0.18521 -0.55605,0.26459 -0.23813,0.0794 -0.50261,0.10594 -0.82011,0.10594 h -0.15864 c -0.23812,0 -0.4499,-0.0262 -0.63511,-0.0527 -0.1852,-0.0265 -0.34364,-0.0794 -0.47593,-0.13229 -0.13229,-0.0529 -0.23833,-0.1325 -0.34417,-0.21188 -0.10583,-0.0794 -0.18531,-0.15875 -0.23823,-0.26458 -0.0529,-0.0794 -0.10583,-0.18511 -0.13229,-0.29094 -0.0265,-0.10583 -0.0526,-0.18521 -0.0791,-0.26458 0,-0.0794 -0.0269,-0.15886 -0.0269,-0.23823 z m -25.66458,1.19062 h 3.30729 v 0.66146 h -2.32802 v 0.42323 h 2.24896 v 0.66146 h -2.27531 v 0.47646 h 2.38125 v 0.66146 h -3.33417 z m 127.423742,1.87844 h 3.30729 v 0.66146 h -2.32854 v 0.42322 h 2.24896 v 0.66146 h -2.27531 v 0.47646 h 2.38125 v 0.66146 h -3.33365 z m -24.97677,0.18552 h 0.97875 v 2.83083 h -0.97875 z m -63.615742,1.04749 a 2.619391,1.8256362 53.330637 0 0 -0.94155,0.26355 2.619391,1.8256362 53.330637 0 0 0.0997,3.19101 2.619391,1.8256362 53.330637 0 0 3.02877,1.01079 2.619391,1.8256362 53.330637 0 0 -0.0997,-3.19101 2.619391,1.8256362 53.330637 0 0 -2.08721,-1.27434 z m 51.905862,0.78703 a 2.1431102,2.6193564 44.027605 0 0 -1.90791,0.9095 2.1431102,2.6193564 44.027605 0 0 -0.27956,3.37291 2.1431102,2.6193564 44.027605 0 0 3.36156,-0.39428 2.1431102,2.6193564 44.027605 0 0 0.27956,-3.3724 2.1431102,2.6193564 44.027605 0 0 -1.45365,-0.51573 z m -7.42436,0.26818 c -0.20521,0.0167 -0.39688,0.42728 -0.47128,1.23095 -0.10583,1.16417 -0.1324,1.82562 0.9524,3.43958 0.66145,0.97896 1.4551,1.42843 1.08468,2.19573 -0.635,1.32291 -1.56083,2.30219 -2.56625,3.6251 -1.00541,1.322924 -1.71989,3.466154 -1.42885,4.206994 0.29104,0.74083 1.19073,0.0528 1.56115,-0.50282 0.37041,-0.58208 1.27,-1.87886 2.11666,-1.90532 0.84667,-0.0264 1.82552,2.54032 2.67219,3.22824 0.44979,0.37041 0.97875,0.37041 1.37562,0.26458 0.34396,-0.0794 0.55552,-0.42344 0.42323,-0.7674 -0.39688,-1.21708 -1.24312,-4.127394 -0.50229,-5.450314 1.00542,-1.74625 1.71979,-1.77302 3.04271,-2.30219 1.32292,-0.55562 3.65083,-2.11635 1.56062,-1.93114 -2.09021,0.18521 -4.60354,0.0262 -6.40271,-1.00563 -1.69333,-0.9525 -2.64562,-2.46031 -2.96312,-3.65093 -0.12734,-0.46302 -0.29514,-0.68845 -0.45476,-0.67543 z m -57.356682,0.4899 h 2.27531 c 0.8202,0 1.21697,0.23845 1.21697,0.7147 v 0.0527 c 0,0.29104 -0.1852,0.50292 -0.52916,0.60875 0.15875,0.0529 0.29104,0.13198 0.39687,0.21135 0.10584,0.10584 0.15865,0.23813 0.15865,0.39688 v 0.7674 h -0.87281 v -0.50282 c 0,-0.15875 -0.0529,-0.29115 -0.13229,-0.37052 -0.0794,-0.0794 -0.23845,-0.10541 -0.45011,-0.10541 h -1.16427 v 0.97875 h -0.89916 z m 0.89916,0.60876 v 0.52916 h 1.34979 c 0.1323,0 0.21167,-0.0267 0.26459,-0.0796 0.0529,-0.0529 0.079,-0.10562 0.079,-0.185 0,-0.0794 -0.0262,-0.13261 -0.079,-0.18553 -0.0529,-0.0529 -0.13229,-0.079 -0.26459,-0.079 z m 18.3193,0.22479 c -0.14883,-0.0132 -0.38024,0.11906 -0.67128,0.33073 -0.84667,0.635 -2.24917,1.95802 -3.65146,2.35489 -2.38125,0.66146 -3.3074,0.95219 -3.67781,1.79885 -0.37042,0.84667 -0.66104,4.52459 -0.37,4.31292 0.58209,-0.44979 0.84635,-1.05822 1.40198,-1.87843 0.37041,-0.58209 0.89958,-1.13782 1.32291,-0.37053 0.44979,0.79375 0.89948,2.19583 -0.10594,3.09542 -1.00541,0.899584 -1.64041,1.561464 -1.5875,1.878964 0.0529,0.3175 1.37605,-0.0794 1.66709,0.26459 0.18521,0.21166 -1.50834,2.51333 -0.47646,2.83083 1.03187,0.3175 2.24938,-1.08458 2.67271,-2.30167 0.42334,-1.21708 0.60823,-1.27021 1.66656,-1.27021 1.05833,0 1.66709,0.10583 2.32855,1.32292 0.635,1.24354 1.05844,1.77281 1.42885,1.56114 0.37042,-0.21166 0,-2.88406 0,-2.88406 0,0 1.90479,-1.1e-4 1.11104,-1.16427 -0.79375,-1.164174 -1.79938,-0.634684 -3.38688,-3.518644 -0.82021,-1.50813 -1.19052,-2.14344 -1.34927,-2.43449 -0.0794,-0.13229 -0.0526,-0.29114 0.0532,-0.37052 0.47625,-0.39687 1.66655,-1.53416 1.79885,-3.01583 0.0397,-0.37041 -0.0265,-0.52937 -0.17518,-0.5426 z m -43.77201,0.35708 h 0.29094 c 0.29104,0 0.52927,0.0268 0.76739,0.0532 0.21167,0.0265 0.39688,0.0794 0.52917,0.13229 0.13229,0.0529 0.23791,0.13198 0.31729,0.21135 0.0794,0.0794 0.13271,0.15886 0.15917,0.23823 0.0265,0.0794 0.0527,0.15875 0.0527,0.26459 v 0.0265 h -1.00563 c 0,-0.0265 -0.0265,-0.0526 -0.0265,-0.0791 0,-0.0265 -0.0262,-0.0531 -0.0791,-0.0796 -0.0265,-0.0265 -0.0794,-0.0531 -0.13229,-0.0796 -0.0529,-0.0265 -0.15875,-0.0527 -0.26458,-0.0527 -0.10584,-0.0265 -0.21177,-0.0265 -0.37052,-0.0265 h -0.15865 c -0.23812,0 -0.37052,0.0262 -0.50281,0.0527 -0.13229,0.0265 -0.21178,0.0531 -0.23823,0.0796 -0.0265,0.0265 -0.0527,0.0794 -0.0527,0.1323 0,0.0529 0.0262,0.0794 0.0527,0.13229 0.0265,0.0265 0.10604,0.0526 0.21187,0.0791 0.10584,0.0265 0.26427,0.0532 0.47594,0.0532 h 0.23823 0.29093 c 0.58209,0 1.00563,0.0791 1.27022,0.21135 0.26458,0.13229 0.39687,0.34406 0.39687,0.6351 v 0.0532 c 0,0.10583 1.1e-4,0.21156 -0.0265,0.29093 -0.0265,0.0794 -0.0798,0.15875 -0.15917,0.26459 -0.0794,0.0794 -0.185,0.15843 -0.31729,0.21135 -0.13229,0.0529 -0.3175,0.10583 -0.52917,0.13229 -0.21166,0.0265 -0.52906,0.10594 -0.8201,0.10594 h -0.29093 c -0.3175,0 -0.58251,-0.0262 -0.82064,-0.0791 -0.23812,-0.0529 -0.42333,-0.10615 -0.52916,-0.18553 -0.13229,-0.0794 -0.23802,-0.15875 -0.29094,-0.26458 -0.0794,-0.10583 -0.13229,-0.18521 -0.13229,-0.26458 -0.0265,-0.0794 -0.0265,-0.15875 -0.0265,-0.26459 v -0.0527 h 1.03198 c 0.0265,0.29104 0.23792,0.44958 0.84646,0.44958 h 0.23823 c 0.18521,0 0.29104,1e-4 0.39687,-0.0265 0.13229,-0.0265 0.21156,-0.0531 0.29094,-0.0796 0.0529,-0.0265 0.10594,-0.0525 0.10594,-0.10541 0.0265,-0.0265 0.0265,-0.0795 0.0265,-0.10594 0,-0.0529 -0.0262,-0.10572 -0.0527,-0.15864 -0.0265,-0.0265 -0.10594,-0.0795 -0.23823,-0.10594 -0.13229,-0.0265 -0.29104,-0.0532 -0.52917,-0.0532 h -0.31728 -0.23824 c -1.00541,-0.0265 -1.53479,-0.31729 -1.53479,-0.84646 v -0.0265 c 0,-0.0794 -1.1e-4,-0.1852 0.0265,-0.26458 0.0265,-0.0794 0.0798,-0.15886 0.15917,-0.23823 0.0794,-0.0794 0.1851,-0.13208 0.29094,-0.185 0.13229,-0.0529 0.29114,-0.10583 0.50281,-0.13229 0.21167,-0.0265 0.44958,-0.0532 0.71416,-0.0532 z m 125.888952,1.37615 h 2.27531 c 0.82021,0 1.21698,0.23781 1.21698,0.74052 v 0.0532 c 0,0.29104 -0.18521,0.50239 -0.52917,0.60822 0.15875,0.0529 0.29104,0.1324 0.39688,0.23823 0.10583,0.10584 0.15864,0.23802 0.15864,0.42323 v 0.7674 h -0.89969 v -0.50281 c 0.0265,-0.18521 -0.0259,-0.3175 -0.10541,-0.39688 -0.0794,-0.0794 -0.23844,-0.10594 -0.45011,-0.10594 h -1.16427 v 1.00563 h -0.89916 z m -24.4476,0.0265 h 1.00509 l -0.42322,0.60822 h -0.92604 z m 25.34676,0.60822 v 0.55605 h 1.3498 c 0.13229,0 0.21167,-0.0267 0.26458,-0.0796 0.0529,-0.0529 0.0791,-0.10604 0.0791,-0.21187 0,-0.0794 -0.0262,-0.15854 -0.0791,-0.185 -0.0529,-0.0529 -0.15875,-0.0796 -0.26458,-0.0796 z m -25.42635,0.34407 h 0.18552 c 0.26459,0 0.5024,0.0262 0.74052,0.0527 0.21167,0.0265 0.39677,0.0794 0.55552,0.13229 0.15875,0.0529 0.26458,0.13251 0.39687,0.21188 0.10584,0.0794 0.18521,0.18521 0.26459,0.26458 0.0529,0.0794 0.10625,0.18511 0.15917,0.29094 0.0265,0.10583 0.0526,0.1851 0.0791,0.29094 0,0.0794 0.0265,0.15875 0.0265,0.26458 v 0.13229 c 0,0.0794 1e-4,0.15875 -0.0265,0.26458 -0.0265,0.10584 -0.0262,0.18564 -0.0791,0.29147 -0.0529,0.10583 -0.0798,0.21156 -0.15917,0.29094 -0.0529,0.0794 -0.15875,0.1852 -0.26459,0.26458 -0.10583,0.0794 -0.23812,0.15885 -0.39687,0.23823 -0.15875,0.0529 -0.31739,0.10573 -0.55552,0.15864 -0.21167,0.0265 -0.44947,0.0527 -0.74052,0.0527 h -0.18552 c -0.26458,0 -0.50239,-0.0262 -0.74052,-0.0527 -0.21166,-0.0265 -0.3973,-0.0793 -0.55605,-0.15864 -0.15875,-0.0529 -0.26458,-0.1324 -0.39687,-0.23823 -0.10583,-0.0794 -0.21167,-0.18521 -0.26458,-0.26458 -0.0529,-0.0794 -0.10573,-0.18511 -0.15865,-0.29094 -0.0265,-0.10583 -0.0526,-0.21209 -0.0791,-0.29147 0,-0.0794 -0.0269,-0.15875 -0.0269,-0.26458 v -0.13229 c 0,-0.0794 0,-0.18521 0.0269,-0.26458 0,-0.0794 0.0262,-0.18511 0.0791,-0.29094 0.0265,-0.10583 0.0793,-0.21156 0.15865,-0.29094 0.0529,-0.0794 0.15875,-0.1852 0.26458,-0.26458 0.10583,-0.0794 0.23812,-0.15896 0.39687,-0.21188 0.15875,-0.0529 0.34439,-0.10583 0.55605,-0.13229 0.21167,-0.0265 0.47594,-0.0527 0.74052,-0.0527 z m 0.15864,0.76739 c -0.82021,0 -1.24333,0.26459 -1.24333,0.79375 v 0.0527 c 0,0.10583 0.0262,0.1851 0.0527,0.29093 0.0265,0.0794 0.10615,0.18521 0.18552,0.26459 0.0794,0.0794 0.21167,0.15896 0.39688,0.21188 0.18521,0.0529 0.39698,0.0796 0.6351,0.0796 0.23813,0 0.44937,-0.0267 0.63458,-0.0796 0.18521,-0.0529 0.29104,-0.10605 0.39688,-0.21188 0.0794,-0.0794 0.15906,-0.18521 0.18552,-0.26459 0.0265,-0.0794 0.0527,-0.1851 0.0527,-0.29093 v -0.0527 c 0,-0.0794 1e-4,-0.15896 -0.0265,-0.21187 -0.0794,-0.0794 -0.10573,-0.15844 -0.15865,-0.21135 -0.0529,-0.0794 -0.1325,-0.13261 -0.21187,-0.18553 -0.0794,-0.0529 -0.21178,-0.10583 -0.37053,-0.13229 -0.15875,-0.0265 -0.3175,-0.0527 -0.52916,-0.0527 z m -76.834562,1.42886 h 3.30729 v 0.63458 h -2.32855 v 0.42375 h 2.24896 v 0.63458 h -2.27531 v 0.45011 h 2.38125 v 0.66146 h -3.33364 z m -24.95042,1.50791 h 0.97874 v 2.85771 h -0.97874 z m 127.396862,0.52917 h 0.97875 v 2.857714 h -0.97875 z m -27.64896,2.48719 h 1.08469 l 1.98437,1.798854 v -1.798854 h 0.97928 v 2.857184 h -0.95292 l -2.11667,-1.87844 v 1.87844 h -0.97875 z m -74.903422,1.296564 h 3.43958 v 0.50229 l -2.11667,1.61438 h 2.14302 v 0.63458 h -3.49228 v -0.50229 l 2.06343,-1.61438 h -2.03708 z m 102.975612,1.45521 h 0.13229 c 0.26458,0 0.52938,0.0262 0.74104,0.0527 0.21167,0.0264 0.39677,0.0794 0.55552,0.13229 0.15875,0.0529 0.29105,0.1325 0.39688,0.21188 0.10583,0.0794 0.21167,0.15832 0.26458,0.2377 0.0529,0.0794 0.10573,0.18521 0.15865,0.26458 0.0265,0.10583 0.0531,0.18521 0.0796,0.26458 0,0.0794 0.0265,0.15886 0.0265,0.23823 v 0.10594 c 0,0.0794 1.1e-4,0.15886 -0.0265,0.23823 -0.0265,0.0794 -0.0267,0.15875 -0.0796,0.26459 -0.0265,0.10583 -0.0793,0.18521 -0.15865,0.26458 -0.0529,0.0794 -0.15875,0.15886 -0.26458,0.23823 -0.10583,0.0794 -0.23813,0.15843 -0.39688,0.21135 -0.15875,0.0529 -0.34385,0.10583 -0.55552,0.13229 -0.21166,0.0265 -0.47646,0.0532 -0.74104,0.0532 h -0.13229 c -0.26459,0 -0.52885,-0.0268 -0.74052,-0.0532 -0.21166,-0.0265 -0.42375,-0.0794 -0.55605,-0.13229 -0.15875,-0.0529 -0.29104,-0.13197 -0.39687,-0.21135 -0.10583,-0.0794 -0.21167,-0.15885 -0.26458,-0.23823 -0.0529,-0.0794 -0.10573,-0.18521 -0.15865,-0.26458 -0.0265,-0.10584 -0.0526,-0.18521 -0.0791,-0.26459 0,-0.0794 -0.0269,-0.15885 -0.0269,-0.23823 v -0.10594 c 0,-0.0794 0,-0.15885 0.0269,-0.23823 0,-0.0794 0.0262,-0.15875 0.0791,-0.26458 0.0265,-0.10583 0.0793,-0.18521 0.15865,-0.26458 0.0529,-0.0794 0.15875,-0.15833 0.26458,-0.2377 0.10583,-0.0794 0.23812,-0.15897 0.39687,-0.21188 0.15875,-0.0529 0.34439,-0.10584 0.55605,-0.13229 0.21167,-0.0265 0.47593,-0.0527 0.74052,-0.0527 z m -128.031972,0.185 h 1.45521 l 1.53479,2.83083 h -1.00563 l -0.26458,-0.52917 h -2.03708 l -0.26458,0.52917 h -0.9524 z m 128.058322,0.44958 c -0.79375,0.0265 -1.19062,0.26479 -1.19062,0.74104 v 0.0527 c 0,0.0794 0.0268,0.18521 0.0532,0.26458 0.0265,0.0794 0.10562,0.15886 0.185,0.23823 0.0794,0.0794 0.21166,0.15907 0.39687,0.18553 0.15875,0.0529 0.37074,0.079 0.5824,0.079 h 0.10541 c 0.21167,0 0.3973,-0.0262 0.55605,-0.079 0.18521,-0.0529 0.3175,-0.10615 0.39688,-0.18553 0.0794,-0.0794 0.15853,-0.15885 0.18499,-0.23823 0.0265,-0.0794 0.0527,-0.15875 0.0527,-0.26458 v -0.0527 c 0,-0.0794 1e-4,-0.1325 -0.0265,-0.21188 -0.0529,-0.0265 -0.0793,-0.0793 -0.15865,-0.15864 -0.0529,-0.0794 -0.1325,-0.13208 -0.21187,-0.185 -0.0794,-0.0529 -0.21125,-0.0794 -0.37,-0.13229 -0.13229,-0.0265 -0.265,-0.0532 -0.42375,-0.0532 z m -127.529152,0.18552 -0.52917,1.05834 h 1.37615 l -0.52917,-1.05834 z m 90.276142,4.28604 c -15.927887,0 -25.585527,4.07469 -25.585527,4.07469 v 12.56771 h 81.756247 v -3.1223 h -3.80958 v -3.14811 h -3.8101 v -3.14865 h -4.47157 v -3.14865 c -27.75476,0 -20.98138,-4.07469 -44.07947,-4.07469 z m -52.810722,0.0265 c -23.12456,0 -16.32524,4.07469 -44.08001,4.07469 v 3.14854 h -4.44468 v 3.14865 H 8.7504519 v 3.14865 h -3.810106 v 3.14811 H 86.696598 v -12.59406 h -0.0265 c 0,0 -9.65711,-4.07469 -25.585,-4.07469 z M 4.0938909,125.85592 c -0.926041,0 -1.693439,0.76687 -1.693439,1.69291 0,0.92604 0.767398,1.69344 1.693439,1.69344 H 170.83409 c 0.92604,0 1.69344,-0.7674 1.69344,-1.69344 0,-0.92604 -0.74094,-1.69291 -1.69344,-1.69291 z"
       style="fill:#ffffff;stroke-width:0.264583" />
  </g>
</svg>
